<!DOCTYPE svg PUBLIC "-//W3C//DTD SVG 1.1//EN" "http://www.w3.org/Graphics/SVG/1.1/DTD/svg11.dtd">
<!-- Uploaded to: SVG Repo, www.svgrepo.com, Transformed by: SVG Repo Mixer Tools -->
<svg fill="#ffffff" version="1.1" id="Capa_1" xmlns="http://www.w3.org/2000/svg" xmlns:xlink="http://www.w3.org/1999/xlink" width="800px" height="800px" viewBox="0 0 574.729 574.729" xml:space="preserve" stroke="#ffffff">
<g id="SVGRepo_bgCarrier" stroke-width="0"/>
<g id="SVGRepo_tracerCarrier" stroke-linecap="round" stroke-linejoin="round"/>
<g id="SVGRepo_iconCarrier"> <g> <g> <path d="M99.514,556.369h128.581c10.141,0,18.36-8.22,18.36-18.36l-0.563-6.396c-21.414-23.458-34.59-54.571-34.59-88.838 c0-25.948,7.595-50.073,20.533-70.478l-3.238-36.695L246.456,18.36c0-10.141-8.219-18.36-18.36-18.36H99.514 c-10.141,0-18.36,8.219-18.36,18.36l18.36,314.629l-18.36,205.02C81.154,548.149,89.374,556.369,99.514,556.369z M178.163,38.941 c0-5.074,4.106-9.18,9.18-9.18c5.074,0,9.18,4.106,9.18,9.18v213.276c0,5.073-4.106,9.18-9.18,9.18c-5.073,0-9.18-4.107-9.18-9.18 V38.941z M163.805,341.594c18.752,0,33.948,15.202,33.948,33.947c0,18.752-15.202,33.948-33.948,33.948 s-33.948-15.202-33.948-33.948C129.857,356.79,145.053,341.594,163.805,341.594z"/> <path d="M229.662,442.77c0,20.783,4.939,40.361,13.495,57.853c10.189,20.832,25.582,38.653,44.651,51.542 c18.678,12.626,40.801,20.453,64.633,22.1c3.049,0.208,6.084,0.465,9.18,0.465c72.877,0,131.953-59.082,131.953-131.959 s-59.076-131.959-131.959-131.959c-3.096,0-6.133,0.25-9.18,0.465c-23.832,1.646-45.955,9.474-64.639,22.1 c-25.355,17.147-44.328,42.919-52.957,73.061C231.541,417.996,229.662,430.156,229.662,442.77z M361.615,329.176 c18.121,0,35.203,4.376,50.416,11.953c37.381,18.617,63.184,57.124,63.184,101.641s-25.803,83.023-63.176,101.641 c-15.215,7.583-32.297,11.959-50.424,11.959c-3.096,0-6.145-0.221-9.18-0.465c-58.348-4.7-104.419-53.594-104.419-113.135 s46.066-108.435,104.419-113.135C355.477,329.396,358.52,329.176,361.615,329.176z"/> <circle cx="163.805" cy="375.541" r="11.512"/> <path d="M296.303,461.968h46.115v46.114c0,10.6,8.592,19.198,19.197,19.198c10.6,0,19.199-8.592,19.199-19.198v-46.114h46.113 c10.6,0,19.199-8.593,19.199-19.198c0-10.6-8.594-19.198-19.199-19.198h-46.113v-46.114c0-10.6-8.594-19.198-19.199-19.198 c-10.6,0-19.197,8.592-19.197,19.198v46.114h-46.115c-10.6,0-19.199,8.592-19.199,19.198 C277.104,453.375,285.703,461.968,296.303,461.968z"/> </g> </g> </g>
</svg>